<?xml version="1.0" encoding="UTF-8"?>
<svg id="Capa_1" data-name="Capa 1" xmlns="http://www.w3.org/2000/svg" viewBox="0 0 562.22 301.45">
  <defs>
    <style>
      .cls-1 {
        fill: #1d1d1b;
      }

      .cls-2 {
        fill: #fff;
      }
    </style>
  </defs>
  <path d="M100.21,263.07c6.31-2.08,4.86,9.87,8.6,11.66,3.1,1.48,11.71-1.49,12.8,2.43,1.24,4.45-8.01,7.07-8.87,9.86-1.26,4.07,5.57,12.83-.11,14.34-3.26.87-7.03-5.46-10.34-5.77-4.1-.38-9.92,7.59-12.86,5.39-4-3,2.34-10.25,1.07-13.98-2.08-2.58-10.01-5.9-8.91-9.84,1.15-4.11,10.2-.59,13.23-2.76,2.19-1.97,2.97-10.54,5.38-11.34Z"/>
  <path class="cls-1" d="M535.58,153.41c-3.01-3.06-4.77-7.62-4.11-11.84,1.44-11.21,15.84-18.68,24.88-10.48,16.72,13.92-6.12,37.44-20.65,22.45l-.13-.13ZM540.29,142.13c-.15.19.15.83.73,1.56,1,1.26,2.63,2.97,3.99,3.76.54.24.38.02.71-.24,1.94-2.07,7.26-7.65,7.31-7.76-.01-.02-.11-.12-.27-.29l-1.05-1.14c-.16-.17-.13-.16-.18-.12-1.41,1.37-3.14,3.05-4.67,4.54-.92.9-1.68,1.63-1.92,1.87-.08.06-.05.1-.18.05-1.26-.66-2.76-3.79-4.42-2.28l-.06.07Z"/>
  <polygon class="cls-2" points="456.74 0 458.31 0 458.31 1.75 456.74 0"/>
  <path class="cls-1" d="M50.22,87.88c9.84-.77,9.87,12.3,18.51,13.44,6.16.81,11.97-4.07,17.84,1.28,5.15,4.7,1.58,10.69,1.45,16.12-.25,10.67,13.32,9.96,13.57,19.68.23,8.88-10.15,9.25-12.78,15.8-2.78,6.92,4.22,14.16-2.25,20.39-6.32,6.09-13.27-.67-20.14,2s-6.63,12.86-15.86,12.82c-8.39-.04-9.21-10.44-15.35-12.82-6.73-2.61-13.77,3.9-19.89-1.74-6.91-6.37.26-13.53-2.5-20.65C10.44,148,.2,147.4,0,138.83c-.2-8.71,9.67-9.27,12.46-15.21,3.41-7.27-3.75-14.34,2.38-20.76,6.01-6.29,13.69.44,20.39-2.25s6.63-12.07,14.99-12.73ZM62.29,122.61c-2.61-2.71-4.49,1.99-6.18,1.86-1.39-.11-2.46-2.38-4.78-1.23-1.81.9-.38,3.77-1.46,5.09-.95,1.16-3.4.16-3.98,2.06-1.02,3.37,2.15,3.1,2.31,5.01.11,1.3-2.52,2.95-1.16,5.21,1,1.67,3.13.26,4.26.73,2.22.92.6,4.2,3.42,4.72,2.48.46,2.69-2.3,4.43-2.46s2.28,2.52,4.75,1.29c2.24-1.11.35-3.75,1.46-5.09.87-1.06,3.9-.33,4.51-2.58.71-2.1-2.21-2.71-2.46-4.44-.29-2.02,1.38-2.23,1.54-3.51.45-3.75-3.98-2.09-5.35-3.2-.96-.78-.65-2.76-1.32-3.46ZM47.82,144.63c-1.96-3.12-4.78.11-7.34.47s-4.98-.12-7.43-.42l-.81,2.46c5.76,1.98,10.67.85,15.58-2.5ZM43.79,156.21c3.79.16,7.92-2.58,9.31-6.06.69-1.73-.73-2.28-2.26-2.49-.73,3.65-3.43,5.34-6.83,6l-.21,2.55Z"/>
</svg>